<?xml version="1.0" standalone="no"?>
<!DOCTYPE svg PUBLIC "-//W3C//DTD SVG 20010904//EN"
 "http://www.w3.org/TR/2001/REC-SVG-20010904/DTD/svg10.dtd">
<svg version="1.0" xmlns="http://www.w3.org/2000/svg"
 width="837.000000pt" height="837.000000pt" viewBox="0 0 837.000000 837.000000"
 preserveAspectRatio="xMidYMid meet">
<metadata>
Created by potrace 1.14, written by Peter Selinger 2001-2017
</metadata>
<g transform="translate(0.000000,837.000000) scale(0.100000,-0.100000)"
fill="#000000" stroke="none">
<path d="M4096 7546 c-118 -62 -266 -186 -531 -446 -186 -183 -178 -178 -355
-219 -47 -11 -227 -41 -400 -66 -376 -55 -516 -83 -671 -135 -181 -60 -323
-140 -396 -223 -27 -31 -36 -35 -103 -41 -571 -57 -1031 -594 -1135 -1328 -19
-131 -19 -372 0 -510 71 -533 361 -963 758 -1122 263 -105 343 -260 377 -731
6 -82 18 -185 26 -229 52 -272 287 -629 659 -1002 472 -473 1022 -825 1489
-953 227 -62 457 -73 666 -32 502 99 1097 459 1616 976 297 297 498 567 605
816 55 125 67 184 84 379 27 319 56 461 115 565 50 87 145 162 267 211 284
114 520 371 653 710 246 630 106 1426 -332 1889 -200 211 -439 335 -697 360
-67 7 -76 10 -104 42 -73 83 -217 164 -397 223 -158 52 -300 81 -670 135 -173
25 -353 55 -400 66 -177 41 -168 36 -360 223 -363 356 -526 476 -645 476 -41
0 -68 -8 -119 -34z"/>
</g>
</svg>
